<mxfile host="app.diagrams.net" modified="2023-10-31T08:22:58.081Z" agent="Mozilla/5.0 (Macintosh; Intel Mac OS X 10_15_7) AppleWebKit/537.36 (KHTML, like Gecko) Chrome/118.0.0.0 Safari/537.36" version="21.6.9" etag="dOLmn6lKUwxkR1fjcuLV" type="github">
  <diagram name="第 1 页" id="2-xphImKKY2otNxMNU8F">
    <mxGraphModel>
      <root>
        <mxCell id="0" />
        <mxCell id="1" parent="0" />
      </root>
    </mxGraphModel>
  </diagram>
</mxfile>
